{"title":"The.Longest.Week.2014.HDRiP.XViD-GLY","uid":10817068,"size":541740623,"categoryP":"video","categoryS":"movies","magnet":"?xt=urn:btih:3239e3f08661cf3acbf26f1a59a2b90374cc228d&amp;dn=The.Longest.Week.2014.HDRiP.XViD-GLY&amp;tr=udp%3A%2F%2Ftracker.openbittorrent.com%3A80&amp;tr=udp%3A%2F%2Fopen.demonii.com%3A1337&amp;tr=udp%3A%2F%2Ftracker.coppersurfer.tk%3A6969&amp;tr=udp%3A%2F%2Fexodus.desync.com%3A6969","seeders":1,"leechers":0,"uploader":"ali1997a","files":4,"time":1408475159,"description":"The.Longest.Week.2014.HDRiP.XViD-GLY\n\niMDB:http://www.imdb.com/title/tt2064968/\n\nGeneral\nComplete name: The.Longest.Week.2014.HDRiP.XViD-GLY.avi\nFormat: AVI\nFormat/Info: Audio Video Interleave\nFile size: 507 MiB\nDuration: 1h 26mn\nOverall bit rate: 823 Kbps\n\nVideo\nID: 0\nFormat: MPEG-4 Visual\nFormat profile: Advanced Simple@L5\nFormat settings, BVOP: 2\nFormat settings, QPel: No\nFormat settings, GMC: No warppoints\nFormat settings, Matrix: Default (H.263)\nCodec ID: XVID\nCodec ID/Hint: XviD\nDuration: 1h 26mn\nBit rate: 625 Kbps\nWidth: 640 pixels\nHeight: 352 pixels\nDisplay aspect ratio: 16:9\nFrame rate: 23.976 fps\nColor space: YUV\nChroma subsampling: 4:2:0\nBit depth: 8 bits\nScan type: Progressive\nCompression mode: Lossy\nBits/(Pixel*Frame): 0.116\nStream size: 385 MiB (76%)\nWriting library: XviD 1.2.1 (UTC 2008-12-04)\n\nAudio\nID: 1\nFormat: MPEG Audio\nFormat version: Version 1\nFormat profile: Layer 3\nMode: Joint stereo\nMode extension: MS Stereo\nCodec ID: 55\nCodec ID/Hint: MP3\nDuration: 1h 26mn\nBit rate mode: Constant\nBit rate: 192 Kbps\nChannel(s): 2 channels\nSampling rate: 48.0 KHz\nCompression mode: Lossy\nStream size: 118 MiB (23%)\nAlignment: Aligned on interleaves\nInterleave, duration: 167 ms (4.00 video frames)\nInterleave, preload duration: 216 ms\nWriting library: LAME3.99r\nEncoding settings: -m j -V 4 -q 2 -lowpass 18.6 -b 192\nSource: The.Longest.Week.2014.720p.HDRiP.X264.AC3.5.1-PLAYNOW","torrent":{"xt":"urn:btih:3239e3f08661cf3acbf26f1a59a2b90374cc228d","amp;dn":"The.Longest.Week.2014.HDRiP.XViD-GLY","amp;tr":["udp%3A%2F%2Ftracker.openbittorrent.com%3A80","udp%3A%2F%2Fopen.demonii.com%3A1337","udp%3A%2F%2Ftracker.coppersurfer.tk%3A6969","udp%3A%2F%2Fexodus.desync.com%3A6969"],"infoHash":"3239e3f08661cf3acbf26f1a59a2b90374cc228d","infoHashBuffer":{"type":"Buffer","data":[50,57,227,240,134,97,207,58,203,242,111,26,89,162,185,3,116,204,34,141]},"announce":[],"urlList":[]}}